<svg width="256" height="173" viewBox="0 0 256 173" fill="none" xmlns="http://www.w3.org/2000/svg">
<g clip-path="url(#clip0_2136_15232)">
<path d="M255.942 89.2796C253.988 134.207 197.624 173 127.219 173C56.814 173 0 134.252 0 89.2796C0 39.0156 57.0757 0 127.481 0C197.885 0 258.088 39.985 255.942 89.2796Z" fill="#EB5E11"/>
<path d="M130.907 168.63C99.2467 168.63 67.5206 160.475 43.8682 146.26C18.923 131.27 5.18677 111.18 5.18677 89.6955C5.18677 68.2105 16.5755 46.9374 37.2538 31.311C47.6909 23.4237 60.1079 17.1149 74.1561 12.562C88.8784 7.7867 105.044 5.0693 122.204 4.48133C124.335 4.40452 126.492 4.37009 128.612 4.37009C161.395 4.37009 192.083 13.0361 215.013 28.7737C238.1 44.6147 250.813 65.9169 250.813 88.7605C250.813 108.052 237.466 128.107 214.196 143.779C190.745 159.575 160.388 168.633 130.909 168.633L130.907 168.63ZM128.609 5.65463C126.502 5.65463 124.361 5.69171 122.246 5.76322C89.1031 6.90209 59.1959 16.3388 38.0311 32.336C17.6831 47.7134 6.47685 68.086 6.47685 89.6928C6.47685 111.3 19.991 130.404 44.5291 145.151C67.9912 159.251 99.474 167.337 130.909 167.337C160.137 167.337 190.235 158.359 213.48 142.703C236.387 127.276 249.526 107.61 249.526 88.7526C249.526 66.3486 237.014 45.4225 214.286 29.8305C191.567 14.2385 161.139 5.65198 128.612 5.65198L128.609 5.65463Z" fill="white"/>
<path d="M98.3716 100.541L98.3584 100.353L99.8335 100.253L99.8441 100.441L98.3716 100.541Z" fill="#12100B"/>
<path d="M96.7221 101.021L101.843 102.011C101.843 102.011 102.543 104.527 98.4589 107.144L96.6507 104.098L97.264 107.242C97.264 107.242 93.5947 107.777 95.0645 102.994L95.35 102.226C95.35 102.226 89.7059 102.671 91.7811 98.7561L94.4961 100.48L92.5161 97.6941C92.5161 97.6941 93.6396 95.17 97.7398 95.6017L96.7247 101.018L96.7221 101.021Z" fill="#FFE900"/>
<path d="M96.0718 98.8541C95.6039 98.9548 95.1465 98.6581 95.0461 98.1893C94.9456 97.7232 95.2443 97.265 95.7096 97.1644C96.1722 97.0637 96.6322 97.3603 96.7327 97.8265C96.8331 98.2953 96.5371 98.7535 96.0744 98.8541H96.0718Z" fill="#E4B1D3"/>
<path d="M99.7781 104.159C99.3155 104.26 98.8555 103.963 98.7551 103.497C98.6546 103.028 98.9507 102.57 99.4133 102.469C99.8812 102.369 100.339 102.665 100.439 103.132C100.539 103.6 100.243 104.058 99.7755 104.159H99.7781Z" fill="#E4B1D3"/>
<path d="M92.9628 101.029C92.7751 101.071 92.59 100.952 92.553 100.766C92.5134 100.581 92.6323 100.396 92.8174 100.356C93.0025 100.316 93.1875 100.435 93.2272 100.621C93.2668 100.806 93.1452 100.991 92.9628 101.029Z" fill="#E4B1D3"/>
<path d="M95.9131 105.348C95.728 105.388 95.543 105.269 95.506 105.083C95.4637 104.898 95.5853 104.713 95.7677 104.673C95.9554 104.633 96.1378 104.755 96.1775 104.938C96.2171 105.123 96.0982 105.309 95.9131 105.348Z" fill="#E4B1D3"/>
<path d="M97.8033 100.337C97.7716 100.306 97.5099 100.197 97.0023 100.639C96.4921 101.082 95.9872 101.479 94.475 102.631C94.2741 102.782 94.4168 103.012 94.853 102.687C96.1352 101.738 98.1576 100.671 97.8033 100.337Z" fill="#12100B"/>
<path d="M98.4026 98.551L97.9229 100.013L98.1012 100.072L98.5809 98.6097L98.4026 98.551Z" fill="#12100B"/>
<path d="M209.565 95.5673L209.554 93.9967L209.755 93.994L209.766 95.5646L209.565 95.5673Z" fill="#12100B"/>
<path d="M210.157 97.3445L211.545 91.9785C211.545 91.9785 214.252 91.3985 216.742 95.9116L213.403 97.6278L216.769 97.1908C216.769 97.1908 217.091 101.116 212.129 99.2382L211.339 98.8833C211.339 98.8833 211.437 104.903 207.432 102.44L209.438 99.6778L206.361 101.593C206.361 101.593 203.77 100.229 204.497 95.9063L210.157 97.3445Z" fill="#FFE900"/>
<path d="M207.825 97.8953C207.902 98.3933 207.558 98.862 207.053 98.9362C206.556 99.013 206.091 98.6687 206.014 98.1655C205.938 97.6676 206.287 97.1961 206.784 97.1246C207.283 97.0478 207.751 97.3921 207.825 97.8953Z" fill="#E4B1D3"/>
<path d="M213.678 94.3172C213.758 94.8151 213.411 95.2839 212.912 95.3581C212.412 95.4349 211.944 95.0905 211.87 94.5873C211.799 94.0894 212.143 93.618 212.642 93.5465C213.139 93.4696 213.607 93.8139 213.678 94.3172Z" fill="#E4B1D3"/>
<path d="M209.917 101.336C209.946 101.537 209.808 101.722 209.61 101.757C209.409 101.786 209.221 101.648 209.192 101.447C209.16 101.248 209.298 101.06 209.499 101.029C209.7 100.997 209.885 101.137 209.917 101.336Z" fill="#E4B1D3"/>
<path d="M214.678 98.4966C214.709 98.6952 214.572 98.8833 214.374 98.915C214.173 98.9442 213.985 98.8065 213.953 98.6078C213.924 98.4065 214.062 98.2185 214.263 98.1893C214.461 98.1576 214.649 98.2953 214.675 98.4966H214.678Z" fill="#E4B1D3"/>
<path d="M209.507 96.1553C209.472 96.187 209.343 96.4598 209.774 97.0293C210.207 97.6014 210.591 98.1602 211.706 99.8447C211.854 100.067 212.108 99.9321 211.796 99.45C210.876 98.0225 209.887 95.803 209.507 96.1579V96.1553Z" fill="#13120D"/>
<path d="M209.176 96.0069L207.661 95.4004L207.733 95.215L209.248 95.8215L209.176 96.0069Z" fill="#12100B"/>
<path fill-rule="evenodd" clip-rule="evenodd" d="M96.0347 74.3366L96.7484 61.7931C96.299 61.7931 93.1558 61.7666 87.3134 61.7163C87.3134 61.8911 87.1865 61.1627 86.9353 59.5312C86.634 57.5448 86.359 55.0976 86.1079 52.1868C85.18 40.4326 84.6169 32.6221 84.416 28.7552L78.1744 27.8123C78.6502 37.0319 79.216 45.3457 79.8663 52.751C81.1458 63.9252 82.0605 71.0709 82.6104 74.1856L96.0347 74.3366ZM76.6331 37.837L76.6332 37.8344V37.837L76.6331 37.837ZM62.4211 37.3868L76.6331 37.837L76.4455 43.4493L67.9489 43.1844V49.8508H73.1727V55.5054H67.9489V64.2456L75.1659 64.3939L75.0179 70.0433L62.2704 69.744L62.4211 37.3868ZM130.235 81.0639L124.869 81.1354L124.509 51.2439L120.364 65.9354L115.753 52.1074C115.801 56.9463 115.693 64.9237 115.428 76.0422L109.988 75.8966C110.249 66.0546 110.384 58.8347 110.384 54.2368C110.384 49.6389 110.228 42.9275 109.914 34.0205L115.283 33.806C115.449 34.1926 117.001 38.7879 119.93 47.5969L123.93 33.12L129.336 32.8684L130.235 81.0612V81.0639ZM148.323 56.4086C148.323 54.8698 148.466 51.522 148.754 46.3733L148.756 46.3706L143.355 46.0449C143.038 51.3631 142.882 54.8195 142.882 56.4059C142.882 58.1884 142.007 59.0783 140.254 59.0783C138.692 59.0783 137.91 57.9368 137.91 55.6485V45.7588H132.472V55.6485C132.472 57.7435 133.011 59.6186 134.092 61.2793C135.509 63.4219 137.563 64.4919 140.254 64.4919C142.819 64.4919 144.862 63.5914 146.377 61.7878C147.675 60.2437 148.323 58.4533 148.323 56.4086ZM168.895 45.253L168.607 70.9544C164.682 70.9067 162.897 70.7981 163.254 70.6286L157.293 58.501V70.9173L151.852 70.9544L151.709 45.253L157.112 45.2159C157.091 45.2162 157.065 45.2268 157.044 45.253C157.044 45.3245 159.146 49.9091 163.349 59.0068L163.492 45.2159L168.895 45.253ZM186.661 67.0557C188.678 63.0856 189.688 58.5963 189.688 53.5906H189.685C189.685 48.2485 188.556 43.497 186.298 39.3335C183.85 34.8071 180.464 31.8487 176.139 30.4503C173.688 30.0159 171.766 29.7405 170.373 29.6186L172.068 77.0195C174.83 76.6355 176.681 76.2488 177.617 75.8648C181.484 74.273 184.501 71.3411 186.661 67.0557ZM182.158 42.8348C183.501 45.8913 184.173 49.3582 184.173 53.2304V53.233C184.173 56.8668 183.586 60.1775 182.41 63.1624C181.162 66.338 179.43 68.6263 177.22 70.0195L175.996 36.0837C178.637 37.2888 180.691 39.5401 182.158 42.8348ZM206.731 54.2421C206.731 56.6258 206.66 58.7817 206.517 60.7045C206.371 62.63 206.3 64.2907 206.3 65.6864C206.3 73.5791 203.701 77.5281 198.499 77.5281C193.584 77.5281 191.131 73.4837 191.131 65.3978C191.131 63.806 191.216 62.005 191.382 59.9815C191.549 57.9607 191.633 56.2523 191.633 54.8539C191.633 50.7407 191.982 47.7664 192.677 45.9389C193.833 42.8852 196.149 41.3543 199.63 41.3543C202.707 41.3543 204.769 42.8693 205.829 45.9019C206.43 47.634 206.728 50.4123 206.728 54.2395L206.731 54.2421ZM201.362 55.5055C201.362 50.5024 200.785 47.9995 199.633 47.9995C198.216 47.9995 197.365 49.0695 197.076 51.2122C197.029 51.5247 197.005 53.1509 197.005 56.0881C197.005 57.2906 196.934 59.0836 196.791 61.4673C196.646 63.8484 196.577 65.6282 196.577 66.8094C196.577 70.3717 197.224 72.1515 198.522 72.1515C200.132 72.1515 200.936 70.2393 200.936 66.4121C200.936 65.1859 201.005 63.361 201.15 60.9403C201.293 58.5248 201.364 56.7132 201.364 55.5081L201.362 55.5055ZM70.3546 135.489C72.4589 131.344 73.5137 126.661 73.5137 121.438H73.5111C73.5111 115.863 72.332 110.905 69.9766 106.559C67.4202 101.839 63.8857 98.7508 59.3756 97.2941C56.8193 96.8386 54.8128 96.5525 53.3588 96.4254L55.1247 145.887C58.0089 145.482 59.9387 145.082 60.9169 144.679C64.951 143.021 68.0996 139.957 70.3546 135.489ZM65.6542 110.211C67.058 113.4 67.7585 117.018 67.7585 121.062C67.7585 124.855 67.1452 128.306 65.9159 131.421C64.6126 134.734 62.8071 137.12 60.5018 138.577L59.2223 103.166C61.9822 104.424 64.1262 106.773 65.6542 110.211ZM90.1685 107.388L89.9808 113L81.4842 112.738V119.407H86.7106V125.056H81.4842V133.796L88.7039 133.945L88.5532 139.594L75.8057 139.295L75.9564 106.937L90.1685 107.388ZM119.552 157.644L136.651 153.671L135.319 138.198L122.989 140.712L122.991 140.741C122.977 141.06 122.711 139.943 122.191 137.385C121.554 134.379 121.03 130.655 120.623 126.219C118.817 105.438 117.683 92.0792 117.226 86.1385L110.889 85.3386C111.883 99.1561 113.017 112.973 114.289 126.788C114.976 134.101 116.055 141.429 117.53 148.774C118.141 151.857 118.815 154.812 119.552 157.644ZM144.791 109.938C144.471 115.656 144.31 119.37 144.31 121.081C144.31 123.35 143.591 125.342 142.153 127.05C140.474 129.055 138.206 130.054 135.356 130.054C132.506 130.054 130.087 128.867 128.514 126.489C127.314 124.643 126.714 122.561 126.714 120.236V109.258H132.755V120.236C132.755 122.776 133.622 124.044 135.356 124.044C137.302 124.044 138.274 123.056 138.274 121.078C138.274 119.314 138.452 115.482 138.798 109.578L144.794 109.936L144.791 109.938ZM166.828 137.226L167.148 108.696L167.143 108.699L161.142 108.656L160.983 123.965C156.32 113.869 153.985 108.781 153.985 108.699C154.011 108.67 154.037 108.657 154.066 108.656L148.066 108.699L148.225 137.229L154.266 137.189V123.403L160.885 136.866C160.489 137.051 162.469 137.173 166.828 137.226ZM190.948 137.067L190.948 137.068L182.19 104.93L175.909 105.089L169.189 135.425L175.029 136.066L176.924 128.25H182.367L185.177 139.316L190.948 137.068L190.948 137.07V137.067ZM180.731 122.235L179.343 117.15L178.219 122.238H180.731V122.235ZM198.007 140.855C198.581 140.28 198.869 139.581 198.869 138.752C198.869 137.952 198.581 137.263 198.007 136.689C197.433 136.114 196.775 135.825 195.948 135.825C195.12 135.825 194.422 136.114 193.849 136.689C193.275 137.263 192.987 137.923 192.987 138.752C192.987 139.581 193.275 140.28 193.849 140.855C194.422 141.429 195.149 141.718 195.948 141.718C196.746 141.718 197.433 141.429 198.007 140.855ZM200.394 118.437C201.383 110.049 202.12 104.239 202.602 101.007H202.599L196.667 100.123C195.678 107.041 194.93 112.934 194.425 117.794C193.92 124.179 193.587 128.894 193.426 131.94L199.466 132.099C199.569 128.068 199.876 123.512 200.394 118.437Z" fill="#CC0F60"/>
<path fill-rule="evenodd" clip-rule="evenodd" d="M98.3055 59.3909L97.5917 71.9317L84.1675 71.7834C83.6149 68.6661 82.7002 61.5229 81.4234 50.3488C80.7704 42.9408 80.2073 34.6297 79.7288 25.4101L85.9704 26.353C86.1713 30.2198 86.737 38.0304 87.665 49.782C87.9135 52.698 88.191 55.1453 88.4924 57.1264C88.7409 58.7579 88.8678 59.4862 88.8678 59.3141C94.7102 59.3644 97.8561 59.3909 98.3055 59.3909ZM78.0025 41.0444L78.1902 35.4322L63.9755 34.9793L63.8275 67.3365L76.5723 67.6384L76.723 61.9891L69.5033 61.8408V53.0979H74.7297V47.4486H69.5033V40.7822L78.0025 41.0444ZM121.427 155.451L138.525 151.475L137.19 136.005L124.863 138.519L124.865 138.548C124.852 138.864 124.585 137.75 124.065 135.189C123.428 132.183 122.904 128.462 122.5 124.023C120.692 103.245 119.558 89.8862 119.1 83.9481L112.766 83.1456C113.76 96.9604 114.892 110.778 116.163 124.593C116.85 131.908 117.932 139.239 119.407 146.578C120.015 149.661 120.689 152.619 121.427 155.451ZM146.184 118.885C146.184 117.177 146.345 113.463 146.665 107.745L146.668 107.743L140.675 107.382C140.326 113.289 140.149 117.121 140.149 118.882C140.149 120.863 139.176 121.849 137.233 121.849C135.499 121.849 134.629 120.58 134.629 118.043V107.062H128.588V118.043C128.588 120.368 129.188 122.45 130.388 124.293C131.961 126.674 134.375 127.861 137.227 127.861C140.08 127.861 142.348 126.86 144.027 124.857C145.465 123.147 146.184 121.155 146.184 118.885ZM169.025 106.503L168.705 135.036C164.346 134.983 162.366 134.861 162.76 134.676L156.145 121.21V134.996L150.105 135.038L149.946 106.506L155.943 106.466C155.917 106.466 155.891 106.48 155.865 106.506C155.865 106.588 158.199 111.676 162.865 121.775L163.021 106.466L169.022 106.506L169.025 106.503ZM192.822 134.875L192.823 134.874V134.877L192.822 134.875ZM192.822 134.875L187.052 137.123L184.242 126.057H178.801L176.903 133.873L171.063 133.232L177.783 102.896L184.064 102.737L192.822 134.875ZM181.22 114.957L182.605 120.042H180.091L181.22 114.957ZM200.743 136.559C200.743 137.385 200.455 138.087 199.881 138.662C199.308 139.236 198.623 139.522 197.822 139.522C197.021 139.522 196.296 139.236 195.723 138.662C195.146 138.087 194.861 137.385 194.861 136.559C194.861 135.732 195.146 135.07 195.723 134.493C196.296 133.921 196.994 133.632 197.822 133.632C198.649 133.632 199.308 133.921 199.881 134.493C200.455 135.07 200.743 135.756 200.743 136.559ZM204.478 98.8144C203.995 102.046 203.257 107.854 202.268 116.242C201.753 121.319 201.444 125.872 201.34 129.906L195.302 129.747C195.461 126.701 195.794 121.984 196.299 115.601C196.807 110.738 197.552 104.848 198.541 97.9298L204.478 98.8144ZM126.468 77.981L131.837 77.9095V77.9068L130.938 29.714L125.532 29.9656L121.532 44.4425C118.601 35.6335 117.051 31.0382 116.885 30.6516L111.516 30.8661C111.83 39.7705 111.986 46.4845 111.986 51.0824C111.986 55.6803 111.851 62.9002 111.59 72.7422L117.03 72.8878C117.295 61.7693 117.403 53.7919 117.355 48.953L121.966 62.781L126.111 48.0895L126.468 77.981ZM150.361 43.2162C150.07 48.3676 149.927 51.7128 149.927 53.2516C149.927 55.2989 149.28 57.0893 147.982 58.6307C146.467 60.437 144.426 61.3375 141.856 61.3375C139.287 61.3375 137.114 60.2675 135.697 58.1249C134.616 56.4642 134.076 54.5891 134.076 52.4941V42.6018H139.514V52.4941C139.514 54.7824 140.297 55.9239 141.859 55.9239C143.612 55.9239 144.487 55.0314 144.487 53.2489C144.487 51.6624 144.643 48.2087 144.957 42.8905L150.364 43.2136L150.361 43.2162ZM170.212 67.8L170.5 42.0985L165.099 42.0615L164.954 55.8524C160.75 46.7547 158.649 42.1701 158.649 42.0985C158.67 42.0724 158.696 42.0618 158.717 42.0615L153.314 42.0985L153.457 67.8L158.897 67.7629V55.3439L164.859 67.4742C164.502 67.6437 166.286 67.7523 170.212 67.8ZM191.292 50.4388C191.292 55.4445 190.282 59.9312 188.265 63.904C186.103 68.1893 183.089 71.1239 179.221 72.7104C178.286 73.0971 176.435 73.4837 173.672 73.8678L171.978 26.4669C173.371 26.586 175.293 26.8641 177.741 27.2985C182.069 28.6943 185.452 31.6553 187.903 36.1817C190.161 40.3426 191.289 45.0967 191.289 50.4388H191.292ZM185.78 50.0786C185.78 46.2038 185.106 42.7395 183.763 39.6831C182.296 36.3856 180.244 34.137 177.601 32.9319L178.825 66.8677C181.035 65.4693 182.766 63.1862 184.014 60.0106C185.191 57.0257 185.78 53.715 185.78 50.0812V50.0786ZM208.121 57.5501C208.264 55.6246 208.336 53.4714 208.336 51.0877L208.333 51.085C208.333 47.2579 208.031 44.4796 207.434 42.7474C206.374 39.7148 204.309 38.1972 201.235 38.1972C197.753 38.1972 195.437 39.7281 194.282 42.7819C193.587 44.612 193.238 47.5837 193.238 51.6995C193.238 53.0953 193.153 54.8062 192.987 56.8271C192.82 58.8506 192.736 60.6542 192.736 62.2433C192.736 70.3267 195.191 74.3736 200.103 74.3736C205.306 74.3736 207.905 70.4247 207.905 62.532C207.905 61.1336 207.976 59.473 208.121 57.5501ZM201.237 44.8424C202.39 44.8424 202.966 47.3479 202.966 52.351L202.969 52.3537C202.969 53.5588 202.898 55.3704 202.755 57.7858C202.609 60.2066 202.538 62.0288 202.538 63.2551C202.538 67.0822 201.734 68.9945 200.127 68.9945C198.826 68.9945 198.179 67.2173 198.179 63.6524C198.179 62.4738 198.25 60.6939 198.396 58.3129C198.538 55.9292 198.61 54.1362 198.61 52.9337C198.61 49.9965 198.631 48.3703 198.681 48.0578C198.969 45.9151 199.82 44.8424 201.237 44.8424ZM75.1157 118.951C75.1157 124.177 74.0635 128.857 71.9566 133.002C69.7015 137.47 66.5556 140.537 62.5215 142.195C61.5433 142.595 59.6109 142.997 56.7293 143.4L54.9634 93.9411C56.4174 94.0682 58.4239 94.3542 60.9776 94.8071C65.4903 96.2638 69.0248 99.352 71.5812 104.072C73.9366 108.418 75.113 113.376 75.113 118.951H75.1157ZM69.3632 118.575C69.3632 114.531 68.6626 110.913 67.2588 107.724C65.7308 104.286 63.5869 101.937 60.8296 100.682L62.1064 136.09C64.4117 134.633 66.2173 132.247 67.5206 128.934C68.7472 125.819 69.3632 122.368 69.3632 118.575ZM91.5854 110.516L91.7731 104.901L77.561 104.45L77.4103 136.808L90.1579 137.107L90.3085 131.458L83.0888 131.309V122.569H88.3153V116.92H83.0888V110.253L91.5854 110.516Z" fill="white"/>
<path d="M59.7272 30.7072L59.4999 30.6728L59.759 28.9062L59.981 28.938L59.7272 30.7072Z" fill="#12100B"/>
<path d="M59.87 32.7704L62.3312 26.9833C62.3312 26.9833 65.4692 26.7926 67.5074 32.2778L63.4653 33.6417L67.3171 33.7186C67.3171 33.7186 67.0157 38.1813 61.7655 35.2309L60.9354 34.7012C60.9354 34.7012 60.0286 41.4735 55.9495 38.0304L58.6698 35.2706L54.8921 36.8968C54.8921 36.8968 52.2141 34.9289 53.7606 30.1986L59.87 32.773V32.7704Z" fill="#FFE900"/>
<path d="M57.1576 32.9902C57.1576 33.565 56.695 34.0284 56.1213 34.0284C55.5477 34.0284 55.0824 33.5623 55.0824 32.9902C55.0824 32.4181 55.545 31.9493 56.1213 31.9493C56.6976 31.9493 57.1576 32.4181 57.1576 32.9902Z" fill="#E4B1D3"/>
<path d="M64.3351 29.9629C64.3351 30.5377 63.8672 31.0038 63.2961 31.0038C62.7251 31.0038 62.2572 30.535 62.2572 29.9629C62.2572 29.3908 62.7251 28.9221 63.2961 28.9221C63.8672 28.9221 64.3351 29.3908 64.3351 29.9629Z" fill="#E4B1D3"/>
<path d="M58.9236 37.2067C58.9236 37.4371 58.7385 37.6252 58.5112 37.6252C58.2838 37.6252 58.0935 37.4371 58.0935 37.2067C58.0935 36.9763 58.2812 36.7935 58.5112 36.7935C58.7412 36.7935 58.9236 36.9789 58.9236 37.2067Z" fill="#E4B1D3"/>
<path d="M64.7501 34.8257C64.7501 35.0561 64.5651 35.2441 64.3377 35.2441C64.1104 35.2441 63.92 35.0561 63.92 34.8257C63.92 34.5952 64.1051 34.4125 64.3377 34.4125C64.5704 34.4125 64.7501 34.5979 64.7501 34.8257Z" fill="#E4B1D3"/>
<path d="M59.3386 31.3216C59.2963 31.3534 59.1007 31.6342 59.4919 32.3493C59.8832 33.0644 60.2189 33.7583 61.1865 35.8321C61.3187 36.1102 61.6227 35.999 61.3531 35.403C60.5626 33.6471 59.825 30.9906 59.3386 31.3216Z" fill="#12100B"/>
<path d="M58.9183 31.1733L57.3242 30.2357L57.4379 30.0371L59.0346 30.9773L58.9183 31.1733Z" fill="#12100B"/>
</g>
<defs>
<clipPath id="clip0_2136_15232">
<rect width="256" height="173" fill="white"/>
</clipPath>
</defs>
</svg>
