<svg width="7448" height="1050" viewBox="0 0 7448 1050" fill="none" xmlns="http://www.w3.org/2000/svg">
<path fill-rule="evenodd" clip-rule="evenodd" d="M329.114 0C147.349 0 0 152.733 0 341.139V708.519C0 896.925 147.349 1049.66 329.114 1049.66H683.544C865.309 1049.66 1012.66 896.925 1012.66 708.519V341.139C1012.66 152.733 865.309 0 683.544 0H329.114ZM179.845 159.548V886.961H416.443V704.068H480.892L599.906 886.961H852.544L705.17 663.091C744.619 642.283 775.698 614.375 798.407 579.369C824.473 538.495 837.506 490.001 837.506 433.887C837.506 377.772 824.473 329.278 798.407 288.404C772.341 246.838 735.248 214.97 687.126 192.801C639.673 170.632 583.197 159.548 517.698 159.548H179.845ZM897.293 852.191H886.66V879.455H890.555V871.159H897.293C897.892 871.159 898.469 871.135 899.024 871.088L904.888 879.455H909.133L902.666 870.328C902.92 870.236 903.168 870.136 903.408 870.029C905.096 869.276 906.394 868.199 907.303 866.797C908.212 865.368 908.666 863.668 908.666 861.694C908.666 859.721 908.212 858.02 907.303 856.592C906.394 855.164 905.096 854.073 903.408 853.32C901.72 852.567 899.682 852.191 897.293 852.191ZM890.555 867.848H897.176C899.669 867.848 901.551 867.316 902.824 866.251C904.122 865.161 904.771 863.642 904.771 861.694C904.771 859.747 904.122 858.241 902.824 857.176C901.551 856.112 899.669 855.579 897.176 855.579H890.555V867.848ZM921.519 865.823C921.519 879.805 910.184 891.139 896.203 891.139C882.221 891.139 870.886 879.805 870.886 865.823C870.886 851.841 882.221 840.506 896.203 840.506C910.184 840.506 921.519 851.841 921.519 865.823ZM917.624 865.823C917.624 877.654 908.033 887.244 896.203 887.244C884.372 887.244 874.781 877.654 874.781 865.823C874.781 853.992 884.372 844.401 896.203 844.401C908.033 844.401 917.624 853.992 917.624 865.823ZM1225.75 821.623V551.966H1601.19V486.626H1225.75V228.377H1646.83V162H1149V888H1662.39V821.623H1225.75ZM2023.25 888V579.969H2398.7V513.591H2023.25V228.377H2444.33V162H1946.51V888H2023.25ZM2706.54 162V888H3189.85V821.623H2783.29V162H2706.54ZM3497.74 821.623V551.966H3873.19V486.626H3497.74V228.377H3918.82V162H3420.99V888H3934.38V821.623H3497.74ZM4295.25 697.032V888H4218.5V162H4295.25V600.33L4721.51 162H4809.67L4495.78 491.124L4831.45 888H4740.18L4443.84 546.521L4295.25 697.032ZM5159.08 888V228.377H4903.94V162H5490.97V228.377H5235.83V888H5159.08ZM5717.29 162V888H5790.93V310.636L6076.14 795.694H6112.44L6397.66 307.314V888H6471.29V162H6408.03L6095.77 699.832L5780.56 162H5717.29ZM6888.31 821.623V551.966H7263.75V486.626H6888.31V228.377H7309.39V162H6811.56V888H7324.94V821.623H6888.31ZM7398 888C7425.61 888 7448 865.614 7448 838C7448 810.386 7425.61 788 7398 788C7370.39 788 7348 810.386 7348 838C7348 865.614 7370.39 888 7398 888ZM7398 880.308C7421.37 880.308 7440.31 861.366 7440.31 838C7440.31 814.634 7421.37 795.692 7398 795.692C7374.63 795.692 7355.69 814.634 7355.69 838C7355.69 861.366 7374.63 880.308 7398 880.308ZM7379.15 811.077H7400.15C7404.87 811.077 7408.9 811.82 7412.23 813.308C7415.56 814.795 7418.13 816.949 7419.92 819.769C7421.72 822.59 7422.62 825.949 7422.62 829.846C7422.62 833.744 7421.72 837.103 7419.92 839.923C7418.13 842.692 7415.56 844.82 7412.23 846.308C7412.05 846.39 7411.86 846.471 7411.67 846.549C7411.37 846.671 7411.07 846.787 7410.76 846.898L7423.54 864.923H7415.15L7403.57 848.398C7402.48 848.492 7401.34 848.538 7400.15 848.538H7386.85V864.923H7379.15V811.077ZM7399.92 842H7386.85V817.769H7399.92C7404.85 817.769 7408.56 818.82 7411.08 820.923C7413.64 823.026 7414.92 826 7414.92 829.846C7414.92 833.692 7413.64 836.692 7411.08 838.846C7408.56 840.949 7404.85 842 7399.92 842Z" fill="url(#paint0_linear_123_67)"/>
<defs>
<linearGradient id="paint0_linear_123_67" x1="0" y1="0" x2="7442.98" y2="1084.84" gradientUnits="userSpaceOnUse">
<stop stop-color="#28BFF6"/>
<stop offset="1" stop-color="#2E5BFF"/>
</linearGradient>
</defs>
</svg>
